# xmcd CD database file generated by Grip 3.2.0
# 
# Track frame offsets:
#       150
#       23506
#       64547
#       95259
#       125537
#       161902
#       182886
#       204665
#       232580
#       261836
#       292688
# 
# Disc length: 4216 seconds
# 
# Revision: 7
# Processed by: cddbd v1.5.2PL0 Copyright (c) Steve Scherf et al.
# Submitted via: Grip 3.2.0
# 
DISCID=8a10760b
DTITLE=Various Artist - Mixmag Live 3 (LTJ Bukem)
DYEAR=1996
DGENRE=Drum and Bass
TTITLE0=Fokus - One Line
TTITLE1=Source Direct - Exit 9
TTITLE2=Future Bound - Sorrow and Liquid Groove
TTITLE3=Funky Technicians - Airtight
TTITLE4=Funky Technicians - No Mystery
TTITLE5=PFM - One and Only
TTITLE6=LTJ Bukem - Music
TTITLE7=Code Of Practice - We Can Change The Future
TTITLE8=Intense - Breathless
TTITLE9=FBD - Just Visiting Mars
TTITLE10=JMJ and Richie - Free La Funk (PFM Remix)
EXTD=YEAR: 1996
EXTT0=
EXTT1=
EXTT2=
EXTT3=
EXTT4=
EXTT5=
EXTT6=
EXTT7=
EXTT8=
EXTT9=
EXTT10=
PLAYORDER=
